<svg xmlns="http://www.w3.org/2000/svg" viewBox="0 0 25 24" fill="none">
    <path d="M8.75 7C8.75 8.06087 9.17143 9.07828 9.92157 9.82843C10.6717 10.5786 11.6891 11 12.75 11C13.8109 11 14.8283 10.5786 15.5784 9.82843C16.3286 9.07828 16.75 8.06087 16.75 7C16.75 5.93913 16.3286 4.92172 15.5784 4.17157C14.8283 3.42143 13.8109 3 12.75 3C11.6891 3 10.6717 3.42143 9.92157 4.17157C9.17143 4.92172 8.75 5.93913 8.75 7Z" stroke="currentColor" stroke-width="2" stroke-linecap="round" stroke-linejoin="round"/>
    <path d="M3.25 17C3.25 18.0609 3.67143 19.0783 4.42157 19.8284C5.17172 20.5786 6.18913 21 7.25 21C8.31087 21 9.32828 20.5786 10.0784 19.8284C10.8286 19.0783 11.25 18.0609 11.25 17C11.25 15.9391 10.8286 14.9217 10.0784 14.1716C9.32828 13.4214 8.31087 13 7.25 13C6.18913 13 5.17172 13.4214 4.42157 14.1716C3.67143 14.9217 3.25 15.9391 3.25 17Z" stroke="currentColor" stroke-width="2" stroke-linecap="round" stroke-linejoin="round"/>
    <path d="M14.25 17C14.25 18.0609 14.6714 19.0783 15.4216 19.8284C16.1717 20.5786 17.1891 21 18.25 21C19.3109 21 20.3283 20.5786 21.0784 19.8284C21.8286 19.0783 22.25 18.0609 22.25 17C22.25 15.9391 21.8286 14.9217 21.0784 14.1716C20.3283 13.4214 19.3109 13 18.25 13C17.1891 13 16.1717 13.4214 15.4216 14.1716C14.6714 14.9217 14.25 15.9391 14.25 17Z" stroke="currentColor" stroke-width="2" stroke-linecap="round" stroke-linejoin="round"/>
</svg>