<svg xmlns="http://www.w3.org/2000/svg" width="24" height="24" viewBox="0 0 24 24" fill="none">
    <path d="M12.8016 2.1651L18.3766 4.5541C18.8566 4.7601 19.2396 5.1431 19.4466 5.6241L21.8346 11.1981C22.0546 11.7101 22.0546 12.2901 21.8346 12.8021L19.4456 18.3771C19.2396 18.8571 18.8566 19.2401 18.3756 19.4471L12.8016 21.8351C12.2896 22.0551 11.7096 22.0551 11.1976 21.8351L5.62261 19.4461C5.14173 19.2401 4.75857 18.857 4.55261 18.3761L2.16461 12.8021C2.056 12.5487 2 12.2758 2 12.0001C2 11.7244 2.056 11.4515 2.16461 11.1981L4.55361 5.6231C4.75961 5.1431 5.14261 4.7601 5.62361 4.5531L11.1976 2.1651C11.451 2.05649 11.7239 2.00049 11.9996 2.00049C12.2753 2.00049 12.5482 2.05649 12.8016 2.1651Z" stroke="#79716B" stroke-width="2" stroke-linecap="round" stroke-linejoin="round"/>
    <path d="M12 16V16.01" stroke="#79716B" stroke-width="2" stroke-linecap="round" stroke-linejoin="round"/>
    <path d="M12 13C12.4498 13.0014 12.8868 12.8511 13.2407 12.5734C13.5945 12.2958 13.8444 11.907 13.95 11.4698C14.0557 11.0327 14.0109 10.5726 13.8229 10.1641C13.6349 9.75549 13.3147 9.42219 12.914 9.21801C12.5162 9.01422 12.0611 8.95103 11.6228 9.03873C11.1845 9.12642 10.7888 9.35984 10.5 9.70101" stroke="#79716B" stroke-width="2" stroke-linecap="round" stroke-linejoin="round"/>
</svg>