<svg width="24" height="24" viewBox="0 0 24 24" fill="none" xmlns="http://www.w3.org/2000/svg">
<path d="M16 4H20C20.2652 4 20.5196 4.10536 20.7071 4.29289C20.8946 4.48043 21 4.73478 21 5V19C21 19.5304 20.7893 20.0391 20.4142 20.4142C20.0391 20.7893 19.5304 21 19 21C18.4696 21 17.9609 20.7893 17.5858 20.4142C17.2107 20.0391 17 19.5304 17 19V3C17 2.73478 16.8946 2.48043 16.7071 2.29289C16.5196 2.10536 16.2652 2 16 2H4C3.73478 2 3.48043 2.10536 3.29289 2.29289C3.10536 2.48043 3 2.73478 3 3V17C3 17.7956 3.31607 18.5587 3.87868 19.1213C4.44129 19.6839 5.20435 20 6 20H19" stroke="var(--stroke-0, #79716B)" stroke-width="2" stroke-linecap="round" stroke-linejoin="round"/>
<path d="M7 7H13" stroke="var(--stroke-0, #79716B)" stroke-width="2" stroke-linecap="round" stroke-linejoin="round"/>
<path d="M7 11H13" stroke="var(--stroke-0, #79716B)" stroke-width="2" stroke-linecap="round" stroke-linejoin="round"/>
<path d="M7 15H13" stroke="var(--stroke-0, #79716B)" stroke-width="2" stroke-linecap="round" stroke-linejoin="round"/>
</svg>