<svg xmlns="http://www.w3.org/2000/svg" width="26" height="26" viewBox="0 0 26 26" fill="none">
    <path d="M7.71622 14.5516C8.07691 14.1378 7.7831 13.4918 7.23417 13.4918H5.59071C5.58 13.3292 5.57402 13.1653 5.57402 13C5.57402 8.90527 8.90529 5.57399 13 5.57399C14.9678 5.57399 16.7589 6.34357 18.0891 7.59722L20.4066 4.8861C18.3779 3.0303 15.7672 2.01379 13 2.01379C10.0655 2.01379 7.30663 3.15659 5.23159 5.23157C3.15661 7.3066 2.01382 10.0655 2.01382 13C2.01382 13.1645 2.01793 13.3284 2.02508 13.4917H0.640781C0.0918595 13.4917 -0.202008 14.1377 0.158731 14.5515L3.28153 18.1335L3.93745 18.8859L6.29245 16.1846L7.71622 14.5516Z" fill="#E45125"/>
    <path d="M25.8409 12.4615L23.5117 9.78977L22.0622 8.12708L19.9926 10.501L18.2835 12.4615C17.9228 12.8752 18.2166 13.5213 18.7655 13.5213H20.407C20.1385 17.3736 16.919 20.4258 12.9996 20.4258C11.2887 20.4258 9.71133 19.8439 8.45432 18.868L6.13672 21.5794C8.07826 23.1386 10.4736 23.986 12.9997 23.986C15.9342 23.986 18.6931 22.8433 20.7681 20.7682C22.7197 18.8166 23.8464 16.26 23.9735 13.5213H25.3589C25.9078 13.5213 26.2016 12.8752 25.8409 12.4615Z" fill="#E45125"/>
</svg>