<svg xmlns="http://www.w3.org/2000/svg" width="25" height="24" viewBox="0 0 25 24" fill="none">
    <path d="M16.75 6H19.75C20.0152 6 20.2696 6.10536 20.4571 6.29289C20.6446 6.48043 20.75 6.73478 20.75 7V18C20.75 18.5304 20.5393 19.0391 20.1642 19.4142C19.7891 19.7893 19.2804 20 18.75 20M18.75 20C18.2196 20 17.7109 19.7893 17.3358 19.4142C16.9607 19.0391 16.75 18.5304 16.75 18V5C16.75 4.73478 16.6446 4.48043 16.4571 4.29289C16.2696 4.10536 16.0152 4 15.75 4H5.75C5.48478 4 5.23043 4.10536 5.04289 4.29289C4.85536 4.48043 4.75 4.73478 4.75 5V17C4.75 17.7956 5.06607 18.5587 5.62868 19.1213C6.19129 19.6839 6.95435 20 7.75 20H18.75Z" stroke="currentColor" stroke-width="2" stroke-linecap="round" stroke-linejoin="round"/>
    <path d="M8.75 8H12.75" stroke="currentColor" stroke-width="2" stroke-linecap="round" stroke-linejoin="round"/>
    <path d="M8.75 12H12.75" stroke="currentColor" stroke-width="2" stroke-linecap="round" stroke-linejoin="round"/>
    <path d="M8.75 16H12.75" stroke="currentColor" stroke-width="2" stroke-linecap="round" stroke-linejoin="round"/>
</svg>