<svg xmlns="http://www.w3.org/2000/svg" viewBox="0 0 33 32" fill="none">
    <path d="M3.00977 15.2066C3.00977 15.9496 3.30494 16.6622 3.83034 17.1876C4.35575 17.713 5.06836 18.0082 5.81139 18.0082L8.61302 18.0082C9.35606 18.0082 10.0687 17.713 10.5941 17.1876C11.1195 16.6622 11.4147 15.9496 11.4147 15.2066L11.4147 6.80167C11.4147 6.05863 11.1195 5.34602 10.5941 4.82061C10.0687 4.29521 9.35606 4.00004 8.61302 4.00004L5.81139 4.00004C5.06836 4.00004 4.35575 4.29521 3.83034 4.82061C3.30494 5.34602 3.00977 6.05863 3.00977 6.80167L3.00977 15.2066Z" stroke="currentColor" stroke-width="2" stroke-linecap="round" stroke-linejoin="round"/>
    <path d="M11.4146 6.80163C11.4146 6.05859 11.7097 5.34598 12.2351 4.82058C12.7605 4.29517 13.4731 4 14.2162 4L24.7391 4C25.3418 3.99996 25.9285 4.19429 26.412 4.55415C26.8955 4.914 27.2501 5.42019 27.4231 5.99756L30.785 14.4024C31.0372 15.2513 31.1576 16.1675 30.6281 16.8791C30.1014 17.5907 29.1096 18.0081 28.2243 18.0081L22.6211 18.0081L22.6211 24.9198C22.6207 25.5809 22.4078 26.2245 22.0136 26.7553C21.6195 27.2862 21.065 27.6762 20.4322 27.8678C19.7994 28.0594 19.1217 28.0423 18.4993 27.8192C17.8769 27.5961 17.3428 27.1787 16.9758 26.6287L11.4146 18.0081L11.4146 6.80163Z" stroke="currentColor" stroke-width="2" stroke-linecap="round" stroke-linejoin="round"/>
</svg>