<svg xmlns="http://www.w3.org/2000/svg" viewBox="0 0 33 32" fill="none">
    <path d="M3 16.7934C3 16.0504 3.29517 15.3378 3.82058 14.8124C4.34598 14.287 5.05859 13.9918 5.80163 13.9918H8.60326C9.34629 13.9918 10.0589 14.287 10.5843 14.8124C11.1097 15.3378 11.4049 16.0504 11.4049 16.7934V25.1983C11.4049 25.9414 11.1097 26.654 10.5843 27.1794C10.0589 27.7048 9.34629 28 8.60326 28H5.80163C5.05859 28 4.34598 27.7048 3.82058 27.1794C3.29517 26.654 3 25.9414 3 25.1983V16.7934Z"  stroke="currentColor" stroke-width="2" stroke-linecap="round" stroke-linejoin="round"/>
    <path d="M11.4048 25.1984C11.4048 25.9414 11.7 26.654 12.2254 27.1794C12.7508 27.7048 13.4634 28 14.2064 28H24.7293C25.3321 28 25.9187 27.8057 26.4022 27.4459C26.8857 27.086 27.2403 26.5798 27.4133 26.0024L30.7752 17.5976C31.0274 16.7487 31.1479 15.8325 30.6184 15.1209C30.0916 14.4093 29.0999 13.9919 28.2146 13.9919H22.6113V7.08024C22.611 6.41906 22.398 5.77551 22.0038 5.24465C21.6097 4.71379 21.0553 4.32377 20.4224 4.1322C19.7896 3.94062 19.112 3.95765 18.4896 4.18077C17.8672 4.40389 17.333 4.82126 16.966 5.37125L11.4048 13.9919V25.1984Z"  stroke="currentColor" stroke-width="2" stroke-linecap="round" stroke-linejoin="round"/>
</svg>