<svg xmlns="http://www.w3.org/2000/svg" width="24" height="24" viewBox="0 0 24 24" fill="none">
    <path fill-rule="evenodd" clip-rule="evenodd" d="M6.68748 3.47873C10.1611 2.48626 13.8433 2.48626 17.3169 3.47873C18.8681 3.92191 20.0805 5.13439 20.5237 6.68553C21.5162 10.1592 21.5162 13.8413 20.5237 17.315C20.0805 18.8661 18.8681 20.0786 17.3169 20.5218C13.8433 21.5142 10.1611 21.5142 6.68748 20.5218C5.13635 20.0786 3.92386 18.8661 3.48068 17.315C2.48821 13.8413 2.48821 10.1592 3.48068 6.68553C3.92386 5.13439 5.13635 3.92191 6.68748 3.47873ZM11.0022 6.00024L11.0021 8.23028C11.0011 9.96825 11.0005 11.1771 11.5301 12.2363C12.0597 13.2955 13.0271 14.0203 14.4181 15.0623L15.4022 15.8002L16.6022 14.2002L15.8022 13.6002C14.1516 12.3623 13.6108 11.9257 13.3189 11.3419C13.027 10.7581 13.0022 10.0635 13.0022 8.00024V6.00024H11.0022Z" fill="#E45125"/>
</svg>