<svg xmlns="http://www.w3.org/2000/svg" width="24" height="24" viewBox="0 0 24 24" fill="none">
    <path d="M4.97754 7C4.97754 8.06087 5.39897 9.07828 6.14911 9.82843C6.89926 10.5786 7.91667 11 8.97754 11C10.0384 11 11.0558 10.5786 11.806 9.82843C12.5561 9.07828 12.9775 8.06087 12.9775 7C12.9775 5.93913 12.5561 4.92172 11.806 4.17157C11.0558 3.42143 10.0384 3 8.97754 3C7.91667 3 6.89926 3.42143 6.14911 4.17157C5.39897 4.92172 4.97754 5.93913 4.97754 7Z" stroke="#79716B" stroke-width="2" stroke-linecap="round" stroke-linejoin="round"/>
    <path d="M2.97754 21V19C2.97754 17.9391 3.39897 16.9217 4.14911 16.1716C4.89926 15.4214 5.91667 15 6.97754 15H10.9775C12.0384 15 13.0558 15.4214 13.806 16.1716C14.5561 16.9217 14.9775 17.9391 14.9775 19V21" stroke="#79716B" stroke-width="2" stroke-linecap="round" stroke-linejoin="round"/>
    <path d="M15.9775 3.13C16.838 3.35031 17.6006 3.85071 18.1452 4.55232C18.6898 5.25392 18.9854 6.11683 18.9854 7.005C18.9854 7.89318 18.6898 8.75608 18.1452 9.45769C17.6006 10.1593 16.838 10.6597 15.9775 10.88" stroke="#79716B" stroke-width="2" stroke-linecap="round" stroke-linejoin="round"/>
    <path d="M20.9775 21V19C20.9725 18.1172 20.6755 17.2608 20.1328 16.5644C19.5902 15.868 18.8324 15.3707 17.9775 15.15" stroke="#79716B" stroke-width="2" stroke-linecap="round" stroke-linejoin="round"/>
</svg>