<svg width="105" height="31" viewBox="0 0 105 31" fill="none" xmlns="http://www.w3.org/2000/svg">
<path d="M12.6447 23.1005C11.993 23.1005 11.4174 22.698 11.1963 22.0779C11.1916 22.0639 11.187 22.0499 11.1823 22.0358L9.09744 15.4163H7.00441C6.35861 15.4163 5.83447 14.8922 5.83447 14.2463C5.83447 13.6005 6.35861 13.0764 7.00441 13.0764H9.95618C10.4674 13.0764 10.919 13.4075 11.0723 13.8954L12.4669 18.3213L14.5552 7.61161C14.5599 7.58704 14.5658 7.56247 14.5716 7.53907C14.7565 6.83242 15.4233 6.36328 16.3546 6.28255C17.3537 6.19598 18.1703 6.57153 18.4874 7.26179C18.5026 7.29572 18.5166 7.32965 18.5283 7.36358L20.5488 13.1501H23.6375C24.2833 13.1501 24.8074 13.6742 24.8074 14.3201C24.8074 14.9659 24.2833 15.49 23.6375 15.49H19.7182C19.2209 15.49 18.7775 15.1753 18.6138 14.7061L16.6518 9.0869L14.1586 21.872C14.1551 21.8896 14.1516 21.9071 14.1469 21.9258C13.9843 22.5927 13.4145 23.0642 12.7301 23.0993C12.702 23.1005 12.6751 23.1016 12.647 23.1016L12.6447 23.1005Z" fill="#EB511E"/>
<path d="M24.364 30.1845H7.54145C3.38347 30.1845 0 26.801 0 22.6431V7.54145C0 3.38347 3.38347 0 7.54145 0H24.364C28.522 0 31.9055 3.38347 31.9055 7.54145V22.6431C31.9055 26.801 28.522 30.1845 24.364 30.1845ZM7.54145 0.818959C3.83507 0.818959 0.818959 3.83507 0.818959 7.54145V22.6431C0.818959 26.3494 3.83507 29.3655 7.54145 29.3655H24.364C28.0704 29.3655 31.0865 26.3494 31.0865 22.6431V7.54145C31.0865 3.83507 28.0704 0.818959 24.364 0.818959H7.54145Z" fill="#EB511E"/>
<path d="M43.7472 2.42281C44.6539 2.42281 45.4109 2.60766 46.0169 2.97853C46.6229 3.3494 47.0804 3.84312 47.3904 4.45968C47.7005 5.07741 47.8561 5.75597 47.8561 6.49655C47.8561 7.23712 47.6993 7.92154 47.3869 8.53342C47.0745 9.1453 46.6101 9.62965 45.9959 9.98882C45.3816 10.348 44.6212 10.527 43.7133 10.527H41.6121V14.1784H38.7878V2.42281H43.7484H43.7472ZM44.9874 6.49655C44.9874 5.88233 44.8177 5.41084 44.4796 5.08443C44.1403 4.75684 43.6782 4.59305 43.0932 4.59305H41.6027V8.40004H43.0932C43.484 8.40004 43.8209 8.32517 44.1052 8.17658C44.3895 8.02683 44.6071 7.81039 44.7592 7.5261C44.9113 7.2418 44.9874 6.89901 44.9874 6.49655Z" fill="white"/>
<path d="M57.5912 4.9803V14.1784H54.9295V12.6364H54.7915C54.7108 12.8774 54.5622 13.1278 54.3434 13.3852C54.1246 13.6426 53.8321 13.8637 53.4648 14.0438C53.0974 14.224 52.6435 14.3153 52.1041 14.3153C51.4958 14.3153 50.9634 14.2018 50.506 13.9748C50.0485 13.7478 49.6952 13.398 49.4425 12.9242C49.1898 12.4504 49.0635 11.8467 49.0635 11.1108V4.97913H51.8105V10.4053C51.8105 10.8476 51.8818 11.188 52.0257 11.4255C52.1696 11.6642 52.351 11.828 52.5721 11.9169C52.7932 12.0058 53.0179 12.0503 53.2483 12.0503C53.535 12.0503 53.7994 11.9824 54.0404 11.8479C54.2814 11.7133 54.4768 11.5168 54.6265 11.2582C54.7763 10.9997 54.85 10.6896 54.85 10.3281V4.9803H57.5912Z" fill="white"/>
<path d="M59.3741 14.1784V1.80273H62.1212V14.1784H59.3741Z" fill="white"/>
<path d="M63.6117 7.74487C63.6117 7.03823 63.7907 6.47197 64.1498 6.04378C64.509 5.61558 64.9828 5.30437 65.5713 5.10899C66.1598 4.91361 66.7951 4.81651 67.4795 4.81651C68.1639 4.81651 68.8144 4.91946 69.3654 5.12654C69.9165 5.33362 70.3482 5.64249 70.6617 6.05196C70.9741 6.46261 71.1309 6.97271 71.1309 7.58108H68.7372C68.7196 7.41495 68.6611 7.25817 68.5605 7.11193C68.4599 6.96569 68.3183 6.84519 68.1347 6.75042C67.951 6.65565 67.7182 6.60886 67.4374 6.60886C67.0408 6.60886 66.7366 6.69543 66.5248 6.86741C66.3119 7.0394 66.2066 7.26402 66.2066 7.53896C66.2066 7.75189 66.2873 7.9227 66.4476 8.0514C66.6079 8.18009 66.8138 8.28421 67.063 8.36143C67.3122 8.43865 67.5778 8.49948 67.8597 8.54277C68.1405 8.58606 68.4026 8.62467 68.6436 8.6586C69.2063 8.75102 69.6965 8.89843 70.1166 9.102C70.5354 9.30557 70.8618 9.58285 71.0934 9.93266C71.3263 10.2825 71.4421 10.7306 71.4421 11.2758C71.4421 11.9134 71.2818 12.4609 70.9601 12.9207C70.6383 13.3805 70.1715 13.7326 69.5608 13.9795C68.9489 14.2263 68.2049 14.3504 67.3262 14.3504C66.4476 14.3504 65.7702 14.231 65.1899 13.9935C64.6096 13.7549 64.1697 13.4261 63.8679 13.0073C63.566 12.5884 63.4151 12.1064 63.4151 11.5601H66.0767C66.1001 11.7496 66.1657 11.9192 66.2745 12.0678C66.3833 12.2176 66.5377 12.3334 66.7354 12.4164C66.9331 12.4995 67.173 12.5416 67.4549 12.5416C67.7708 12.5416 68.0259 12.4995 68.2212 12.4164C68.4166 12.3334 68.5605 12.2187 68.6518 12.0725C68.743 11.9262 68.7898 11.7671 68.7898 11.594C68.7898 11.3296 68.681 11.133 68.4623 11.0043C68.2435 10.8756 67.9627 10.7774 67.6187 10.7118C67.2748 10.6463 66.9097 10.575 66.5248 10.5013C65.9913 10.3983 65.5023 10.2462 65.0612 10.045C64.619 9.84375 64.2668 9.55945 64.0059 9.19209C63.745 8.82473 63.614 8.34271 63.614 7.74487H63.6117Z" fill="white"/>
<path d="M76.8706 14.3504C76.0037 14.3504 75.2409 14.1877 74.5846 13.8637C73.927 13.5396 73.4158 13.0541 73.0519 12.4083C72.6869 11.7625 72.5056 10.9634 72.5056 10.0099V9.13125C72.5056 8.1719 72.6963 7.37283 73.0777 6.73287C73.4591 6.09291 73.9715 5.61324 74.615 5.29501C75.2584 4.97679 75.9698 4.81651 76.7513 4.81651C77.5843 4.81651 78.3155 4.98849 78.9473 5.33362C79.579 5.67758 80.0728 6.17364 80.4284 6.81945C80.7841 7.46525 80.9619 8.23625 80.9619 9.13242V10.1491H75.1742V10.5715C75.1742 11.1003 75.3333 11.5226 75.6515 11.842C75.9698 12.1614 76.3734 12.3205 76.8613 12.3205C77.1374 12.3205 77.3854 12.2796 77.6065 12.1953C77.8276 12.1123 78.0066 11.9964 78.1447 11.8467C78.2827 11.6969 78.3623 11.5285 78.3857 11.3389H80.9011C80.8835 11.649 80.7958 11.9789 80.6378 12.3299C80.4799 12.6797 80.24 13.0084 79.9183 13.3161C79.5966 13.6238 79.1848 13.873 78.6829 14.0649C78.1809 14.2568 77.5761 14.3539 76.8694 14.3539L76.8706 14.3504ZM75.1742 8.60595H78.3354V8.54511C78.3354 8.1953 78.271 7.8876 78.1412 7.6232C78.0125 7.35879 77.83 7.15288 77.5948 7.00313C77.3596 6.85337 77.0835 6.77967 76.7677 6.77967C76.4518 6.77967 76.1745 6.85454 75.937 7.00313C75.6983 7.15288 75.5123 7.35879 75.3766 7.6232C75.2421 7.8876 75.1742 8.19413 75.1742 8.54511V8.60595Z" fill="white"/>
<path d="M78.4844 29.5711C77.6084 29.5711 76.8377 29.4068 76.1745 29.0793C75.5101 28.7518 74.9935 28.2612 74.6258 27.6087C74.257 26.9561 74.0737 26.1487 74.0737 25.1852V24.2974C74.0737 23.328 74.2664 22.5206 74.6518 21.8739C75.0372 21.2273 75.555 20.7426 76.2052 20.421C76.8554 20.0995 77.5742 19.9375 78.3639 19.9375C79.2056 19.9375 79.9444 20.1113 80.5828 20.46C81.2212 20.8076 81.7201 21.3088 82.0795 21.9614C82.4388 22.614 82.6185 23.393 82.6185 24.2986V25.3259H76.7703V25.7526C76.7703 26.287 76.9311 26.7138 77.2526 27.0365C77.5742 27.3592 77.982 27.52 78.475 27.52C78.754 27.52 79.0046 27.4786 79.228 27.3935C79.4515 27.3096 79.6323 27.1925 79.7718 27.0412C79.9113 26.8899 79.9917 26.7197 80.0154 26.5282H82.5571C82.5393 26.8414 82.4507 27.1748 82.2911 27.5295C82.1315 27.8829 81.8891 28.2151 81.564 28.526C81.2389 28.8369 80.8228 29.0888 80.3156 29.2826C79.8085 29.4765 79.1973 29.5746 78.4833 29.5746L78.4844 29.5711ZM76.7703 23.7666H79.9645V23.7051C79.9645 23.3516 79.8995 23.0407 79.7683 22.7735C79.6382 22.5064 79.4538 22.2983 79.2162 22.147C78.9786 21.9957 78.6996 21.9212 78.3804 21.9212C78.0612 21.9212 77.781 21.9969 77.5411 22.147C77.2999 22.2983 77.1119 22.5064 76.9748 22.7735C76.8389 23.0407 76.7703 23.3505 76.7703 23.7051V23.7666Z" fill="white"/>
<path d="M46.7455 21.2271C46.6794 20.9824 46.5824 20.7669 46.4542 20.5805C46.326 20.3902 46.1687 20.229 45.9823 20.097C45.7959 19.9649 45.5823 19.8659 45.3415 19.7999C45.1007 19.73 44.8366 19.695 44.5493 19.695C43.9706 19.695 43.4696 19.8348 43.0463 20.1144C42.6268 20.3941 42.3026 20.8019 42.0734 21.3378C41.8443 21.8699 41.7297 22.5165 41.7297 23.2777C41.7297 24.0428 41.8404 24.6952 42.0618 25.2351C42.2831 25.7749 42.6035 26.1866 43.023 26.4701C43.4424 26.7536 43.9512 26.8953 44.5493 26.8953C45.0774 26.8953 45.5241 26.8099 45.8891 26.639C46.2581 26.4642 46.5377 26.2176 46.728 25.8992C46.9183 25.5807 47.0134 25.2059 47.0134 24.7748L47.5494 24.8389H44.6483V22.7359H49.7922V24.3146C49.7922 25.3826 49.565 26.2972 49.1106 27.0584C48.6601 27.8196 48.0387 28.4041 47.2465 28.8119C46.4581 29.2197 45.5512 29.4236 44.526 29.4236C43.388 29.4236 42.388 29.177 41.5258 28.6837C40.6637 28.1905 39.9918 27.4876 39.5102 26.5749C39.0286 25.6584 38.7878 24.5709 38.7878 23.3126C38.7878 22.334 38.9335 21.466 39.2248 20.7086C39.516 19.9474 39.9219 19.3028 40.4423 18.7746C40.9666 18.2464 41.5724 17.8464 42.2598 17.5745C42.9511 17.3027 43.6948 17.1667 44.491 17.1667C45.1823 17.1667 45.825 17.2658 46.4192 17.4638C47.0173 17.6619 47.5455 17.9415 48.0038 18.3027C48.4659 18.6639 48.8407 19.093 49.1281 19.5902C49.4155 20.0873 49.5941 20.6329 49.664 21.2271H46.7455Z" fill="white"/>
<path d="M53.5221 29.4119C52.9512 29.4119 52.4444 29.3168 52.0016 29.1265C51.5628 28.9323 51.2152 28.641 50.9589 28.2527C50.7064 27.8604 50.5802 27.3691 50.5802 26.7788C50.5802 26.2817 50.6676 25.8623 50.8424 25.5205C51.0171 25.1787 51.2579 24.9011 51.5647 24.6875C51.8715 24.4739 52.2249 24.3127 52.625 24.2039C53.025 24.0913 53.4522 24.0156 53.9066 23.9767C54.4153 23.9301 54.8251 23.8816 55.1357 23.8311C55.4464 23.7767 55.6717 23.701 55.8115 23.6039C55.9552 23.5029 56.027 23.3612 56.027 23.1787V23.1495C56.027 22.8505 55.9241 22.6194 55.7183 22.4563C55.5125 22.2932 55.2348 22.2116 54.8853 22.2116C54.5085 22.2116 54.2056 22.2932 53.9765 22.4563C53.7473 22.6194 53.6017 22.8447 53.5396 23.1321L50.9123 23.0388C50.9899 22.4951 51.1899 22.0097 51.5123 21.5825C51.8385 21.1514 52.2851 20.8135 52.8522 20.5688C53.4231 20.3203 54.1085 20.196 54.9086 20.196C55.4795 20.196 56.0057 20.264 56.4873 20.3999C56.9688 20.5319 57.3883 20.7261 57.7456 20.9824C58.1029 21.2349 58.3786 21.5456 58.5728 21.9145C58.7709 22.2835 58.8699 22.7048 58.8699 23.1787V29.2605H56.1902V28.0138H56.1203C55.961 28.3167 55.7571 28.5731 55.5086 28.7828C55.2639 28.9925 54.9746 29.1498 54.6406 29.2546C54.3105 29.3595 53.9376 29.4119 53.5221 29.4119ZM54.4017 27.5478C54.7085 27.5478 54.9843 27.4856 55.229 27.3614C55.4775 27.2371 55.6756 27.0662 55.8232 26.8487C55.9707 26.6273 56.0445 26.371 56.0445 26.0797V25.2292C55.963 25.2719 55.8639 25.3108 55.7474 25.3457C55.6348 25.3807 55.5105 25.4137 55.3746 25.4448C55.2387 25.4758 55.0989 25.503 54.9552 25.5263C54.8115 25.5496 54.6736 25.571 54.5415 25.5904C54.2736 25.6331 54.0444 25.6992 53.8541 25.7885C53.6677 25.8778 53.524 25.9943 53.4231 26.138C53.326 26.2778 53.2774 26.4448 53.2774 26.639C53.2774 26.9342 53.3823 27.1594 53.592 27.3148C53.8056 27.4701 54.0755 27.5478 54.4017 27.5478Z" fill="white"/>
<path d="M60.1196 29.2605V20.3125H62.8284V21.9553H62.9275C63.1139 21.4116 63.4285 20.9824 63.8712 20.6679C64.3139 20.3533 64.8421 20.196 65.4557 20.196C66.0771 20.196 66.6092 20.3552 67.0519 20.6737C67.4946 20.9922 67.7762 21.4194 67.8966 21.9553H67.9898C68.1568 21.4232 68.483 20.998 68.9685 20.6795C69.454 20.3572 70.0268 20.196 70.687 20.196C71.5337 20.196 72.2211 20.4679 72.7492 21.0116C73.2774 21.5514 73.5415 22.2932 73.5415 23.2369V29.2605H70.6928V23.8894C70.6928 23.4427 70.5783 23.1029 70.3491 22.8699C70.12 22.633 69.8229 22.5145 69.4578 22.5145C69.0656 22.5145 68.7568 22.6427 68.5316 22.899C68.3102 23.1515 68.1995 23.4913 68.1995 23.9185V29.2605H65.4615V23.8602C65.4615 23.4447 65.3489 23.1165 65.1237 22.8757C64.8984 22.6349 64.6013 22.5145 64.2324 22.5145C63.9838 22.5145 63.7644 22.5747 63.5741 22.6951C63.3838 22.8116 63.2343 22.9786 63.1255 23.1961C63.0207 23.4136 62.9682 23.6699 62.9682 23.9651V29.2605H60.1196Z" fill="white"/>
</svg>
