<svg xmlns="http://www.w3.org/2000/svg" width="105" height="31" viewBox="0 0 105 31" fill="none">
    <path d="M12.6448 23.1005C11.9931 23.1005 11.4175 22.698 11.1964 22.0779C11.1917 22.0639 11.187 22.0499 11.1823 22.0358L9.09751 15.4163H7.00449C6.35868 15.4163 5.83454 14.8922 5.83454 14.2463C5.83454 13.6005 6.35868 13.0764 7.00449 13.0764H9.95625C10.4675 13.0764 10.9191 13.4075 11.0724 13.8954L12.4669 18.3213L14.5553 7.61161C14.56 7.58704 14.5658 7.56247 14.5717 7.53907C14.7565 6.83242 15.4234 6.36328 16.3547 6.28255C17.3538 6.19598 18.1704 6.57153 18.4875 7.26179C18.5027 7.29572 18.5167 7.32965 18.5284 7.36358L20.5489 13.1501H23.6376C24.2834 13.1501 24.8075 13.6742 24.8075 14.3201C24.8075 14.9659 24.2834 15.49 23.6376 15.49H19.7182C19.221 15.49 18.7776 15.1753 18.6138 14.7061L16.6518 9.0869L14.1587 21.872C14.1552 21.8896 14.1517 21.9071 14.147 21.9258C13.9844 22.5927 13.4146 23.0642 12.7302 23.0993C12.7021 23.1005 12.6752 23.1016 12.6471 23.1016L12.6448 23.1005Z" fill="#EB511E"/>
    <path d="M24.364 30.1845H7.54145C3.38347 30.1845 0 26.801 0 22.643V7.54142C0 3.38344 3.38347 -3.05176e-05 7.54145 -3.05176e-05H24.364C28.522 -3.05176e-05 31.9055 3.38344 31.9055 7.54142V22.643C31.9055 26.801 28.522 30.1845 24.364 30.1845ZM7.54145 0.818929C3.83507 0.818929 0.818959 3.83504 0.818959 7.54142V22.643C0.818959 26.3494 3.83507 29.3655 7.54145 29.3655H24.364C28.0704 29.3655 31.0865 26.3494 31.0865 22.643V7.54142C31.0865 3.83504 28.0704 0.818929 24.364 0.818929H7.54145Z" fill="#EB511E"/>
    <path d="M43.6601 2.4803C44.5668 2.4803 45.3237 2.66516 45.9297 3.03603C46.5358 3.4069 46.9932 3.90061 47.3033 4.51717C47.6133 5.1349 47.7689 5.81347 47.7689 6.55404C47.7689 7.29462 47.6121 7.97903 47.2997 8.59091C46.9874 9.20279 46.5229 9.68715 45.9087 10.0463C45.2945 10.4055 44.534 10.5845 43.6261 10.5845H41.5249V14.2359H38.7007V2.4803H43.6612H43.6601ZM44.9002 6.55404C44.9002 5.93982 44.7306 5.46834 44.3924 5.14192C44.0532 4.81434 43.591 4.65055 43.0061 4.65055H41.5156V8.45754H43.0061C43.3968 8.45754 43.7338 8.38266 44.0181 8.23408C44.3024 8.08433 44.52 7.86789 44.6721 7.58359C44.8241 7.29929 44.9002 6.9565 44.9002 6.55404Z" fill="white"/>
    <path d="M57.504 5.03779V14.2359H54.8424V12.6939H54.7043C54.6236 12.9349 54.475 13.1853 54.2562 13.4427C54.0374 13.7 53.745 13.9212 53.3776 14.1013C53.0102 14.2815 52.5563 14.3728 52.017 14.3728C51.4086 14.3728 50.8763 14.2593 50.4188 14.0323C49.9614 13.8053 49.608 13.4555 49.3553 12.9817C49.1026 12.5079 48.9763 11.9042 48.9763 11.1683V5.03662H51.7233V10.4628C51.7233 10.9051 51.7947 11.2455 51.9386 11.483C52.0825 11.7217 52.2638 11.8855 52.4849 11.9744C52.7061 12.0633 52.9307 12.1078 53.1612 12.1078C53.4478 12.1078 53.7122 12.0399 53.9532 11.9054C54.1942 11.7708 54.3896 11.5743 54.5394 11.3157C54.6891 11.0571 54.7628 10.7471 54.7628 10.3856V5.03779H57.504Z" fill="white"/>
    <path d="M59.287 14.2359V1.86023H62.034V14.2359H59.287Z" fill="white"/>
    <path d="M63.5245 7.80237C63.5245 7.09572 63.7035 6.52947 64.0627 6.10127C64.4218 5.67307 64.8957 5.36187 65.4841 5.16649C66.0726 4.97111 66.7079 4.874 67.3923 4.874C68.0767 4.874 68.7272 4.97696 69.2783 5.18404C69.8293 5.39112 70.261 5.69998 70.5746 6.10946C70.8869 6.52011 71.0437 7.0302 71.0437 7.63857H68.65C68.6325 7.47244 68.574 7.31567 68.4734 7.16943C68.3727 7.02318 68.2312 6.90268 68.0475 6.80792C67.8638 6.71315 67.631 6.66635 67.3502 6.66635C66.9536 6.66635 66.6494 6.75293 66.4377 6.92491C66.2247 7.09689 66.1194 7.32152 66.1194 7.59646C66.1194 7.80939 66.2002 7.9802 66.3604 8.10889C66.5207 8.23758 66.7266 8.34171 66.9758 8.41893C67.225 8.49614 67.4906 8.55698 67.7726 8.60027C68.0534 8.64355 68.3154 8.68216 68.5564 8.71609C69.1192 8.80852 69.6094 8.95593 70.0294 9.1595C70.4482 9.36307 70.7746 9.64034 71.0063 9.99016C71.2391 10.34 71.3549 10.7881 71.3549 11.3333C71.3549 11.9709 71.1946 12.5184 70.8729 12.9782C70.5512 13.438 70.0844 13.7901 69.4737 14.037C68.8618 14.2838 68.1177 14.4079 67.2391 14.4079C66.3604 14.4079 65.683 14.2885 65.1028 14.051C64.5225 13.8124 64.0826 13.4836 63.7807 13.0648C63.4789 12.6459 63.3279 12.1639 63.3279 11.6175H65.9896C66.013 11.8071 66.0785 11.9767 66.1873 12.1253C66.2961 12.2751 66.4505 12.3909 66.6482 12.4739C66.846 12.557 67.0858 12.5991 67.3678 12.5991C67.6836 12.5991 67.9387 12.557 68.1341 12.4739C68.3295 12.3909 68.4734 12.2762 68.5646 12.13C68.6559 11.9837 68.7027 11.8246 68.7027 11.6515C68.7027 11.3871 68.5939 11.1905 68.3751 11.0618C68.1563 10.9331 67.8755 10.8349 67.5315 10.7693C67.1876 10.7038 66.8226 10.6325 66.4377 10.5587C65.9042 10.4558 65.4151 10.3037 64.9741 10.1025C64.5318 9.90124 64.1797 9.61695 63.9188 9.24958C63.6579 8.88222 63.5268 8.40021 63.5268 7.80237H63.5245Z" fill="white"/>
    <path d="M76.7834 14.4079C75.9165 14.4079 75.1537 14.2452 74.4974 13.9212C73.8399 13.5971 73.3286 13.1116 72.9648 12.4658C72.5997 11.8199 72.4184 11.0209 72.4184 10.0674V9.18875C72.4184 8.22939 72.6091 7.43032 72.9905 6.79037C73.3719 6.15041 73.8843 5.67073 74.5278 5.35251C75.1713 5.03428 75.8826 4.874 76.6641 4.874C77.4971 4.874 78.2283 5.04598 78.8601 5.39112C79.4919 5.73508 79.9856 6.23113 80.3412 6.87694C80.6969 7.52275 80.8747 8.29374 80.8747 9.18992V10.2066H75.087V10.6289C75.087 11.1578 75.2461 11.5801 75.5644 11.8995C75.8826 12.2189 76.2862 12.378 76.7741 12.378C77.0502 12.378 77.2982 12.3371 77.5193 12.2528C77.7405 12.1698 77.9195 12.0539 78.0575 11.9042C78.1956 11.7544 78.2751 11.586 78.2985 11.3964H80.8139C80.7963 11.7065 80.7086 12.0364 80.5507 12.3874C80.3927 12.7372 80.1529 13.0659 79.8311 13.3736C79.5094 13.6813 79.0976 13.9305 78.5957 14.1224C78.0938 14.3143 77.4889 14.4114 76.7823 14.4114L76.7834 14.4079ZM75.087 8.66344H78.2482V8.60261C78.2482 8.25279 78.1839 7.9451 78.054 7.68069C77.9253 7.41629 77.7428 7.21037 77.5076 7.06062C77.2725 6.91087 76.9964 6.83716 76.6805 6.83716C76.3646 6.83716 76.0873 6.91204 75.8498 7.06062C75.6112 7.21037 75.4251 7.41629 75.2894 7.68069C75.1549 7.9451 75.087 8.25162 75.087 8.60261V8.66344Z" fill="white"/>
    <path d="M43.6601 17.3C44.5668 17.3 45.3237 17.4848 45.9297 17.8557C46.5358 18.2266 46.9932 18.7203 47.3033 19.3368C47.6133 19.9546 47.7689 20.6331 47.7689 21.3737C47.7689 22.1143 47.6121 22.7987 47.2997 23.4106C46.9874 24.0225 46.5229 24.5068 45.9087 24.866C45.2945 25.2252 44.534 25.4042 43.6261 25.4042H41.5249V29.0555H38.7007V17.3H43.6612H43.6601ZM44.9002 21.3737C44.9002 20.7595 44.7306 20.288 44.3924 19.9616C44.0532 19.634 43.591 19.4702 43.0061 19.4702H41.5156V23.2772H43.0061C43.3968 23.2772 43.7338 23.2023 44.0181 23.0537C44.3024 22.904 44.52 22.6875 44.6721 22.4033C44.8241 22.119 44.9002 21.7762 44.9002 21.3737Z" fill="white"/>
    <path d="M49.1073 29.0567V16.6811H51.8543V29.0567H49.1073Z" fill="white"/>
    <path d="M55.9912 29.1936C55.0951 29.1936 54.365 28.9456 53.7999 28.4483C53.2349 27.9523 52.9517 27.2644 52.9517 26.3857C52.9517 25.5071 53.2349 24.8777 53.7999 24.3746C54.365 23.8727 55.1817 23.6212 56.2498 23.6212H58.3943V22.8548C58.3943 22.4816 58.2797 22.2008 58.0503 22.0113C57.821 21.8218 57.511 21.727 57.1202 21.727C56.8617 21.727 56.6441 21.7656 56.4662 21.8428C56.2884 21.9201 56.1492 22.0277 56.0486 22.1657C55.948 22.3038 55.886 22.4617 55.8637 22.6396H53.2887C53.3062 22.2722 53.3858 21.9154 53.5297 21.5679C53.6736 21.2204 53.8947 20.9081 54.193 20.6296C54.4914 20.3512 54.8845 20.13 55.3724 19.9663C55.8602 19.8025 56.4581 19.7206 57.1635 19.7206C57.869 19.7206 58.5546 19.8235 59.1489 20.0306C59.7433 20.2377 60.2171 20.5758 60.5704 21.0473C60.9237 21.5176 61.1004 22.1494 61.1004 22.9414V29.0567H58.5253V27.9289H58.3967C58.2937 28.136 58.1393 28.3372 57.9357 28.5314C57.7321 28.7268 57.4701 28.8859 57.1518 29.0099C56.8336 29.1339 56.4464 29.1948 55.9936 29.1948L55.9912 29.1936ZM56.9389 27.2725C57.1975 27.2725 57.4373 27.2199 57.6584 27.1134C57.8795 27.007 58.0574 26.8607 58.1919 26.6747C58.3265 26.4887 58.3943 26.2711 58.3943 26.0242V25.128H56.9728C56.5423 25.128 56.2147 25.2251 55.9912 25.4205C55.7678 25.6159 55.6555 25.8686 55.6555 26.1786C55.6555 26.546 55.7865 26.8198 56.0474 27.0011C56.3083 27.1825 56.6055 27.2725 56.9389 27.2725Z" fill="white"/>
    <path d="M63.1852 19.9955V17.7223H65.8375V19.9955H67.8533V22.0534H65.8375V25.9552C65.8375 26.3623 65.9393 26.6455 66.1428 26.8034C66.3464 26.9613 66.6576 27.0397 67.0776 27.0397C67.2437 27.0397 67.404 27.035 67.5561 27.0269C67.7082 27.0187 67.824 27.0117 67.9048 27.0058V28.9783C67.8018 28.9959 67.6076 29.0181 67.3233 29.0473C67.039 29.0766 66.736 29.0906 66.4143 29.0906C65.6339 29.0906 64.9998 29.0029 64.5154 28.8274C64.0299 28.6519 63.6766 28.37 63.4566 27.9792C63.2355 27.5884 63.1256 27.0748 63.1256 26.4372V22.0534H61.7216V19.9955H63.1852Z" fill="white"/>
    <path d="M69.6995 29.0567V22.0546H68.2183V19.9967H69.6995V19.0923C69.6995 18.1564 69.9533 17.486 70.4611 17.0812C70.9688 16.6764 71.8229 16.474 73.0233 16.474C73.276 16.474 73.5404 16.4822 73.8153 16.4997C74.0914 16.5173 74.309 16.5372 74.4693 16.5606V18.4208C74.3886 18.4091 74.2599 18.3974 74.0821 18.3868C73.9042 18.3751 73.7428 18.3693 73.6 18.3693C73.1695 18.3693 72.8536 18.4407 72.6524 18.5846C72.4512 18.7285 72.3505 18.9753 72.3505 19.3251V19.9967H74.3745V22.0546H72.4196V29.0567H69.6983H69.6995Z" fill="white"/>
    <path d="M78.6074 19.6948C79.4977 19.6948 80.2675 19.8715 80.9192 20.2248C81.5709 20.5781 82.0751 21.08 82.4308 21.7317C82.7864 22.3834 82.9643 23.1462 82.9643 24.0178V24.8274C82.9643 25.7633 82.7864 26.5601 82.4308 27.2176C82.0751 27.8751 81.5709 28.3746 80.9192 28.7163C80.2675 29.0579 79.4965 29.2287 78.6074 29.2287C77.7182 29.2287 76.9367 29.0579 76.2815 28.7163C75.6264 28.3746 75.1233 27.8762 74.77 27.2222C74.4167 26.5682 74.24 25.7727 74.24 24.8367V24.0353C74.24 23.1742 74.4178 22.4173 74.7735 21.7656C75.1292 21.114 75.6346 20.6062 76.2897 20.2412C76.9437 19.8762 77.7171 19.6948 78.6062 19.6948H78.6074ZM78.6074 21.7446C78.2283 21.7446 77.923 21.8522 77.6902 22.0675C77.4573 22.2827 77.2865 22.5647 77.1777 22.911C77.0689 23.2585 77.0139 23.6305 77.0139 24.026V24.8788C77.0139 25.2638 77.0654 25.6311 77.1695 25.9809C77.2725 26.3307 77.441 26.6174 77.6738 26.8373C77.9066 27.0584 78.2178 27.1684 78.6086 27.1684C78.9993 27.1684 79.3094 27.0584 79.5387 26.8373C79.768 26.6162 79.9329 26.3319 80.0336 25.9844C80.1342 25.637 80.1845 25.2684 80.1845 24.8777V24.0248C80.1845 23.6235 80.1318 23.2479 80.0254 22.9005C79.9189 22.553 79.7516 22.2734 79.5211 22.0605C79.2918 21.8487 78.9876 21.7422 78.6086 21.7422L78.6074 21.7446Z" fill="white"/>
    <path d="M84.202 29.0567V19.8586H86.9491V21.314H87.0778C87.1351 21.1023 87.2497 20.873 87.4217 20.6296C87.5937 20.3851 87.8324 20.1745 88.1366 19.9967C88.4407 19.8188 88.8139 19.7299 89.2562 19.7299C89.4516 19.7299 89.6154 19.7358 89.7476 19.7475C89.8798 19.7592 89.9909 19.7791 90.0833 19.8083V22.1423C89.9862 22.1084 89.8447 22.0803 89.661 22.0604C89.4773 22.0406 89.2819 22.03 89.0748 22.03C88.6045 22.03 88.2161 22.1143 87.9119 22.2839C87.6077 22.4535 87.3831 22.691 87.2404 22.9987C87.0965 23.3064 87.0251 23.6633 87.0251 24.0716V29.0579H84.1997L84.202 29.0567Z" fill="white"/>
    <path d="M90.9082 29.0567V19.8586H93.5698V21.417H93.7078C93.7769 21.1818 93.9044 20.9338 94.0916 20.6717C94.2776 20.4108 94.5455 20.1862 94.893 20.0002C95.2405 19.8142 95.6862 19.7206 96.2326 19.7206C96.6982 19.7206 97.0995 19.7954 97.4388 19.944C97.7769 20.0938 98.0553 20.2985 98.2741 20.5594C98.4917 20.8203 98.645 21.1175 98.7304 21.4509H98.8427C98.934 21.1748 99.0977 20.9057 99.3341 20.6413C99.5692 20.3769 99.8781 20.1581 100.26 19.9826C100.641 19.8071 101.096 19.7194 101.625 19.7194C102.549 19.7194 103.265 19.9873 103.774 20.5243C104.282 21.0613 104.537 21.7773 104.537 22.6735V29.0555H101.798V23.5439C101.798 23.1532 101.737 22.842 101.617 22.6092C101.496 22.3763 101.332 22.2079 101.125 22.1014C100.918 21.9949 100.689 21.9423 100.436 21.9423C100.183 21.9423 99.9424 22.0055 99.7295 22.1318C99.5166 22.2582 99.3481 22.4454 99.2218 22.691C99.0954 22.9379 99.0322 23.2515 99.0322 23.6293V29.0555H96.4139V23.5697C96.4139 23.1684 96.3507 22.849 96.2244 22.6138C96.098 22.3787 95.9295 22.2079 95.7201 22.1014C95.5107 21.9949 95.2849 21.9423 95.0439 21.9423C94.7853 21.9423 94.5514 22.0008 94.3419 22.1189C94.1325 22.2371 93.9664 22.4185 93.8424 22.6653C93.7184 22.9122 93.6575 23.2281 93.6575 23.613V29.0555H90.9105L90.9082 29.0567Z" fill="white"/>
</svg>