<svg xmlns="http://www.w3.org/2000/svg" width="212" height="51" viewBox="0 0 212 51" fill="none">
    <path d="M40.51 50.18H12.54C5.63 50.18 0 44.55 0 37.64V12.54C0 5.63 5.63 0 12.54 0H40.51C47.42 0 53.05 5.63 53.05 12.54V37.65C53.05 44.56 47.42 50.19 40.51 50.19V50.18Z" fill="#141211"/>
    <path d="M40.51 50.18H12.54C5.63 50.18 0 44.55 0 37.64V12.54C0 5.63 5.63 0 12.54 0H40.51C47.42 0 53.05 5.63 53.05 12.54V37.65C53.05 44.56 47.42 50.19 40.51 50.19V50.18ZM12.54 1.36C6.38 1.36 1.36 6.38 1.36 12.54V37.65C1.36 43.81 6.37 48.83 12.54 48.83H40.51C46.67 48.83 51.69 43.82 51.69 37.65V12.54C51.69 6.38 46.68 1.36 40.51 1.36H12.54Z" fill="#EA5224"/>
    <path d="M21.0231 38.407C19.9396 38.407 18.9826 37.7379 18.615 36.707C18.6072 36.6837 18.5994 36.6603 18.5917 36.637L15.1254 25.6314H11.6456C10.5719 25.6314 9.70044 24.76 9.70044 23.6863C9.70044 22.6125 10.5719 21.7411 11.6456 21.7411H16.5532C17.4032 21.7411 18.154 22.2916 18.4088 23.1027L20.7274 30.4612L24.1995 12.6554C24.2073 12.6145 24.217 12.5737 24.2267 12.5348C24.534 11.3599 25.6428 10.5799 27.1911 10.4457C28.8522 10.3018 30.21 10.9262 30.7371 12.0738C30.7624 12.1302 30.7857 12.1866 30.8052 12.243L34.1644 21.8637H39.2996C40.3733 21.8637 41.2447 22.7351 41.2447 23.8088C41.2447 24.8825 40.3733 25.7539 39.2996 25.7539H32.7834C31.9567 25.7539 31.2195 25.2307 30.9472 24.4507L27.6852 15.1082L23.5401 36.3647C23.5342 36.3938 23.5284 36.423 23.5206 36.4541C23.2503 37.5629 22.303 38.3467 21.1651 38.4051C21.1184 38.407 21.0736 38.409 21.027 38.409L21.0231 38.407Z" fill="#EB511E"/>
    <path d="M72.878 16.0309C74.3855 16.0309 75.644 16.3383 76.6516 16.9549C77.6591 17.5715 78.4197 18.3923 78.9352 19.4174C79.4506 20.4444 79.7093 21.5726 79.7093 22.8039C79.7093 24.0352 79.4487 25.1731 78.9293 26.1904C78.41 27.2077 77.6377 28.013 76.6165 28.6101C75.5953 29.2073 74.331 29.5049 72.8216 29.5049H69.3281V35.5757H64.6326V16.0309H72.8799H72.878ZM74.9398 22.8039C74.9398 21.7827 74.6578 20.9988 74.0957 20.4561C73.5316 19.9115 72.7632 19.6392 71.7907 19.6392H69.3126V25.9686H71.7907C72.4403 25.9686 73.0005 25.8441 73.4732 25.5971C73.9459 25.3481 74.3077 24.9883 74.5605 24.5156C74.8134 24.0429 74.9398 23.473 74.9398 22.8039Z" fill="white"/>
    <path d="M95.8948 20.283V35.5756H91.4696V33.012H91.2401C91.1059 33.4127 90.8588 33.8289 90.4951 34.2568C90.1314 34.6848 89.6451 35.0524 89.0343 35.352C88.4235 35.6515 87.6688 35.8032 86.7721 35.8032C85.7606 35.8032 84.8756 35.6146 84.1151 35.2372C83.3545 34.8598 82.7671 34.2782 82.3469 33.4905C81.9268 32.7027 81.7167 31.699 81.7167 30.4755V20.281H86.2839V29.3026C86.2839 30.0378 86.4025 30.6039 86.6418 30.9987C86.881 31.3956 87.1825 31.6679 87.5502 31.8157C87.9178 31.9635 88.2913 32.0374 88.6745 32.0374C89.151 32.0374 89.5906 31.9246 89.9913 31.7009C90.392 31.4773 90.7169 31.1505 90.9658 30.7206C91.2148 30.2907 91.3373 29.7753 91.3373 29.1742V20.283H95.8948Z" fill="white"/>
    <path d="M98.8592 35.5756V15H103.426V35.5756H98.8592Z" fill="white"/>
    <path d="M105.904 24.8793C105.904 23.7045 106.202 22.763 106.799 22.0511C107.396 21.3392 108.184 20.8218 109.163 20.497C110.141 20.1721 111.197 20.0107 112.335 20.0107C113.473 20.0107 114.554 20.1818 115.471 20.5261C116.387 20.8704 117.105 21.3839 117.626 22.0647C118.145 22.7475 118.406 23.5956 118.406 24.607H114.426C114.397 24.3308 114.3 24.0702 114.132 23.827C113.965 23.5839 113.73 23.3835 113.424 23.226C113.119 23.0684 112.732 22.9906 112.265 22.9906C111.606 22.9906 111.1 23.1346 110.748 23.4205C110.394 23.7064 110.219 24.0799 110.219 24.537C110.219 24.891 110.353 25.175 110.619 25.389C110.886 25.6029 111.228 25.7761 111.643 25.9044C112.057 26.0328 112.498 26.134 112.967 26.2059C113.434 26.2779 113.87 26.3421 114.27 26.3985C115.206 26.5522 116.021 26.7972 116.719 27.1357C117.416 27.4742 117.958 27.9352 118.344 28.5167C118.731 29.0983 118.923 29.8433 118.923 30.7498C118.923 31.8099 118.657 32.7202 118.122 33.4846C117.587 34.2491 116.811 34.8346 115.795 35.245C114.778 35.6554 113.541 35.8616 112.08 35.8616C110.619 35.8616 109.493 35.6632 108.528 35.2683C107.564 34.8715 106.832 34.3249 106.33 33.6286C105.829 32.9322 105.578 32.1308 105.578 31.2224H110.003C110.042 31.5375 110.151 31.8196 110.332 32.0666C110.512 32.3156 110.769 32.5082 111.098 32.6463C111.427 32.7844 111.825 32.8544 112.294 32.8544C112.819 32.8544 113.243 32.7844 113.568 32.6463C113.893 32.5082 114.132 32.3175 114.284 32.0744C114.436 31.8313 114.514 31.5667 114.514 31.2788C114.514 30.8392 114.333 30.5125 113.969 30.2985C113.605 30.0845 113.138 29.9211 112.567 29.8122C111.995 29.7033 111.388 29.5846 110.748 29.4621C109.861 29.2909 109.048 29.038 108.314 28.7035C107.579 28.3689 106.994 27.8962 106.56 27.2855C106.126 26.6747 105.908 25.8733 105.908 24.8793H105.904Z" fill="white"/>
    <path d="M127.949 35.8616C126.507 35.8616 125.239 35.5912 124.148 35.0524C123.055 34.5136 122.205 33.7064 121.6 32.6327C120.993 31.5589 120.691 30.2304 120.691 28.6451V27.1843C120.691 25.5893 121.008 24.2608 121.643 23.1968C122.277 22.1328 123.129 21.3353 124.198 20.8062C125.268 20.2772 126.451 20.0107 127.75 20.0107C129.135 20.0107 130.351 20.2966 131.401 20.8704C132.452 21.4423 133.273 22.267 133.864 23.3407C134.455 24.4145 134.751 25.6963 134.751 27.1863V28.8766H125.128V29.5788C125.128 30.458 125.393 31.1602 125.922 31.6912C126.451 32.2222 127.122 32.4868 127.933 32.4868C128.392 32.4868 128.805 32.4187 129.172 32.2786C129.54 32.1405 129.837 31.948 130.067 31.699C130.296 31.45 130.429 31.1699 130.468 30.8548H134.65C134.62 31.3703 134.475 31.9188 134.212 32.5023C133.949 33.0839 133.551 33.6305 133.016 34.1421C132.481 34.6537 131.796 35.068 130.962 35.387C130.127 35.706 129.122 35.8674 127.947 35.8674L127.949 35.8616ZM125.128 26.311H130.384V26.2098C130.384 25.6282 130.277 25.1167 130.061 24.6771C129.847 24.2375 129.544 23.8951 129.153 23.6461C128.762 23.3972 128.303 23.2746 127.777 23.2746C127.252 23.2746 126.791 23.3991 126.396 23.6461C126 23.8951 125.69 24.2375 125.465 24.6771C125.241 25.1167 125.128 25.6263 125.128 26.2098V26.311Z" fill="white"/>
    <path d="M204.949 35.8509C203.507 35.8509 202.239 35.5805 201.148 35.0417C200.055 34.5029 199.205 33.6957 198.6 32.622C197.993 31.5483 197.691 30.2197 197.691 28.6345V27.1737C197.691 25.5786 198.008 24.2501 198.643 23.1861C199.277 22.1221 200.129 21.3246 201.198 20.7956C202.268 20.2665 203.451 20 204.75 20C206.135 20 207.351 20.2859 208.401 20.8598C209.452 21.4316 210.273 22.2564 210.864 23.3301C211.455 24.4038 211.751 25.6856 211.751 27.1756V28.8659H202.128V29.5681C202.128 30.4473 202.393 31.1495 202.922 31.6805C203.451 32.2116 204.122 32.4761 204.933 32.4761C205.392 32.4761 205.805 32.408 206.172 32.268C206.54 32.1299 206.837 31.9373 207.067 31.6883C207.296 31.4393 207.429 31.1592 207.468 30.8441H211.65C211.621 31.3596 211.475 31.9081 211.212 32.4917C210.949 33.0733 210.551 33.6198 210.016 34.1314C209.481 34.643 208.796 35.0573 207.962 35.3763C207.127 35.6953 206.122 35.8567 204.947 35.8567L204.949 35.8509ZM202.128 26.3003H207.384V26.1991C207.384 25.6176 207.277 25.106 207.061 24.6664C206.847 24.2268 206.544 23.8844 206.153 23.6355C205.762 23.3865 205.303 23.2639 204.778 23.2639C204.252 23.2639 203.791 23.3884 203.396 23.6355C203 23.8844 202.69 24.2268 202.465 24.6664C202.241 25.106 202.128 25.6156 202.128 26.1991V26.3003Z" fill="white"/>
    <path d="M152.726 22.6809C152.617 22.2783 152.458 21.9236 152.247 21.6169C152.036 21.3038 151.777 21.0386 151.47 20.8213C151.164 20.6041 150.812 20.4411 150.416 20.3325C150.02 20.2175 149.585 20.16 149.112 20.16C148.16 20.16 147.336 20.39 146.639 20.8501C145.949 21.3102 145.416 21.9811 145.039 22.863C144.662 23.7384 144.473 24.8024 144.473 26.0548C144.473 27.3137 144.655 28.3872 145.019 29.2754C145.384 30.1637 145.911 30.841 146.601 31.3075C147.291 31.774 148.128 32.0072 149.112 32.0072C149.981 32.0072 150.716 31.8666 151.317 31.5855C151.924 31.2979 152.384 30.8921 152.697 30.3681C153.01 29.8442 153.167 29.2275 153.167 28.5182L154.049 28.6236H149.275V25.1634H157.739V27.761C157.739 29.5183 157.365 31.0231 156.617 32.2756C155.876 33.528 154.854 34.4898 153.55 35.1607C152.253 35.8317 150.761 36.1672 149.074 36.1672C147.202 36.1672 145.556 35.7614 144.138 34.9498C142.719 34.1383 141.613 32.9817 140.821 31.48C140.029 29.972 139.633 28.1827 139.633 26.1123C139.633 24.502 139.872 23.0738 140.351 21.8278C140.831 20.5753 141.498 19.5146 142.355 18.6455C143.217 17.7764 144.214 17.1183 145.345 16.671C146.483 16.2237 147.706 16 149.016 16C150.154 16 151.211 16.1629 152.189 16.4888C153.173 16.8147 154.042 17.2748 154.796 17.8691C155.557 18.4634 156.173 19.1695 156.646 19.9874C157.119 20.8054 157.413 21.7032 157.528 22.6809H152.726Z" fill="white"/>
    <path d="M163.876 36.148C162.937 36.148 162.103 35.9914 161.374 35.6783C160.652 35.3588 160.08 34.8796 159.659 34.2405C159.243 33.5951 159.035 32.7868 159.035 31.8155C159.035 30.9976 159.179 30.3074 159.467 29.7451C159.754 29.1828 160.151 28.7259 160.655 28.3744C161.16 28.023 161.742 27.7578 162.4 27.5789C163.058 27.3935 163.761 27.2689 164.509 27.205C165.346 27.1284 166.02 27.0485 166.531 26.9654C167.042 26.876 167.413 26.7513 167.643 26.5916C167.879 26.4254 167.998 26.1922 167.998 25.8919V25.8439C167.998 25.3519 167.828 24.9717 167.49 24.7033C167.151 24.4349 166.694 24.3007 166.119 24.3007C165.499 24.3007 165.001 24.4349 164.624 24.7033C164.247 24.9717 164.007 25.3423 163.905 25.8152L159.582 25.6618C159.71 24.7672 160.039 23.9685 160.569 23.2655C161.106 22.5562 161.841 22.0003 162.774 21.5977C163.713 21.1888 164.841 20.9843 166.157 20.9843C167.097 20.9843 167.962 21.0961 168.755 21.3198C169.547 21.537 170.237 21.8565 170.825 22.2783C171.413 22.6936 171.867 23.2048 172.186 23.8119C172.512 24.419 172.675 25.1123 172.675 25.8919V35.8988H168.266V33.8476H168.151C167.889 34.346 167.554 34.7677 167.145 35.1128C166.742 35.4579 166.266 35.7167 165.716 35.8892C165.173 36.0617 164.56 36.148 163.876 36.148ZM165.323 33.0807C165.828 33.0807 166.282 32.9785 166.684 32.774C167.093 32.5695 167.419 32.2884 167.662 31.9305C167.905 31.5663 168.026 31.1445 168.026 30.6653V29.2658C167.892 29.3361 167.729 29.4 167.538 29.4576C167.352 29.5151 167.148 29.5694 166.924 29.6205C166.7 29.6716 166.47 29.7164 166.234 29.7547C165.998 29.793 165.771 29.8282 165.553 29.8601C165.112 29.9304 164.735 30.0391 164.422 30.186C164.116 30.333 163.879 30.5247 163.713 30.7611C163.553 30.9912 163.473 31.266 163.473 31.5855C163.473 32.0711 163.646 32.4417 163.991 32.6973C164.342 32.9529 164.787 33.0807 165.323 33.0807Z" fill="white"/>
    <path d="M174.731 35.8988V21.176H179.188V23.879H179.351C179.658 22.9844 180.176 22.2783 180.904 21.7607C181.633 21.2431 182.502 20.9843 183.511 20.9843C184.534 20.9843 185.409 21.2463 186.138 21.7703C186.866 22.2942 187.329 22.9972 187.528 23.879H187.681C187.956 23.0036 188.492 22.3038 189.291 21.7798C190.09 21.2495 191.033 20.9843 192.119 20.9843C193.512 20.9843 194.643 21.4316 195.512 22.3262C196.381 23.2144 196.816 24.4349 196.816 25.9877V35.8988H192.128V27.0613C192.128 26.3264 191.94 25.7673 191.563 25.3839C191.186 24.9941 190.697 24.7992 190.096 24.7992C189.451 24.7992 188.943 25.01 188.572 25.4318C188.208 25.8471 188.026 26.4063 188.026 27.1092V35.8988H183.521V27.0133C183.521 26.3296 183.336 25.7896 182.965 25.3934C182.594 24.9973 182.106 24.7992 181.498 24.7992C181.09 24.7992 180.728 24.8982 180.415 25.0963C180.102 25.288 179.856 25.5628 179.677 25.9206C179.505 26.2785 179.419 26.7002 179.419 27.1859V35.8988H174.731Z" fill="white"/>
</svg>